<?xml version="1.0" encoding="UTF-8" standalone="no"?>
<svg
   version="1.1"
   width="200"
   height="200"
   viewBox="75 50 340 320"
   xml:space="preserve"
   id="svg1"
   sodipodi:docname="logo.svg"
   inkscape:version="1.4 (e7c3feb1, 2024-10-09)"
   xmlns:inkscape="http://www.inkscape.org/namespaces/inkscape"
   xmlns:sodipodi="http://sodipodi.sourceforge.net/DTD/sodipodi-0.dtd"
   xmlns="http://www.w3.org/2000/svg"
   xmlns:svg="http://www.w3.org/2000/svg"><defs
   id="defs1" /><sodipodi:namedview
   id="namedview1"
   pagecolor="#ffffff"
   bordercolor="#000000"
   borderopacity="0.25"
   inkscape:showpageshadow="2"
   inkscape:pageopacity="0.0"
   inkscape:pagecheckerboard="0"
   inkscape:deskcolor="#d1d1d1"
   inkscape:zoom="6.5640438"
   inkscape:cx="161.10496"
   inkscape:cy="98.948152"
   inkscape:window-width="1200"
   inkscape:window-height="720"
   inkscape:window-x="2139"
   inkscape:window-y="72"
   inkscape:window-maximized="0"
   inkscape:current-layer="svg1"
   showguides="true" />

<g
   transform="matrix(1 0 0 1 243.65 176.04)"
   id="g1">
<path
   style="opacity:1;fill:#576241;fill-rule:evenodd;stroke:none;stroke-width:0;stroke-linecap:butt;stroke-linejoin:miter;stroke-miterlimit:4;stroke-dasharray:none;stroke-dashoffset:0"
   vector-effect="non-scaling-stroke"
   transform="translate(-200,-161.95)"
   d="m 207.318,68.039 c -0.94,4.965 -1.482,11.141 -1.192,13.587 0.61,5.154 5.356,7.569 10.449,5.316 l 2.145,-0.948 -0.083,1.436 -0.082,1.437 2.625,0.115 c 3.032,0.134 2.74,0.576 3.419,-5.193 0.991,-8.42 2.357,-10.336 6.564,-9.203 3.511,0.945 3.718,2.649 1.318,10.816 -0.892,3.035 -1.622,5.684 -1.622,5.886 0,0.298 2.677,1.371 4.981,1.996 0.319,0.087 0.488,-0.318 0.488,-1.172 0,-0.717 0.633,-3.762 1.407,-6.767 0.774,-3.004 1.555,-6.165 1.735,-7.025 1.249,-5.956 -6.058,-10.748 -11.834,-7.761 -1.072,0.554 -1.113,0.538 -1.513,-0.608 -0.322,-0.924 -0.72,-1.241 -1.841,-1.466 -2.705,-0.544 -2.983,-0.45 -3.096,1.046 -0.805,10.676 -1.83,13.388 -5.17,13.675 -4.436,0.381 -5.851,-1.584 -4.784,-6.643 0.295,-1.397 0.776,-3.946 1.07,-5.665 0.293,-1.718 0.65,-3.671 0.794,-4.338 0.25,-1.166 0.202,-1.223 -1.242,-1.455 -0.826,-0.132 -2.03,-0.345 -2.674,-0.474 l -1.172,-0.233 -0.69,3.641 m -18.214,-2.628 c -0.944,0.305 -2.362,1.186 -3.152,1.958 l -1.437,1.402 -0.752,-0.832 c -2.664,-2.942 -7.843,-2.452 -10.6,1.004 l -1.091,1.367 -0.648,-0.858 c -0.713,-0.946 -2.728,-1.119 -4.153,-0.356 -0.752,0.402 -0.766,0.529 -0.262,2.286 0.798,2.783 2.056,10.387 2.362,14.278 l 0.27,3.434 1.801,-0.277 c 0.99,-0.152 2.152,-0.307 2.581,-0.344 0.984,-0.086 0.998,-1.305 0.078,-6.413 -1.619,-8.985 0.496,-13.196 5.328,-10.61 1.599,0.856 2.978,7.512 2.989,14.432 0.003,1.841 0.086,2.058 0.687,1.804 0.376,-0.158 1.519,-0.43 2.538,-0.604 1.02,-0.174 1.991,-0.4 2.157,-0.503 0.167,-0.103 0.09,-2.442 -0.171,-5.199 -0.943,-9.991 -0.52,-11.636 2.996,-11.636 3.353,0 4.47,2.776 4.43,11.018 l -0.027,5.566 h 2.263 2.263 l 0.45,-2.168 c 2.583,-12.444 -2.636,-21.423 -10.9,-18.749 m -38.024,8.398 c -2.282,0.724 -3.775,2.009 -4.824,4.154 -0.947,1.935 -1.11,2.086 -1.685,1.565 -2.88,-2.606 -9.123,10e-4 -10.02,4.184 -0.391,1.825 -0.512,1.911 -1.704,1.207 -1.009,-0.596 -1.182,-0.592 -2.548,0.056 -2.008,0.953 -2.061,1.377 -0.495,3.976 2.116,3.512 5.775,11.017 6.405,13.136 0.567,1.91 0.569,1.912 1.994,1.681 3.954,-0.642 4.064,-1.8 0.796,-8.325 -2.749,-5.49 -3.02,-8.044 -1.076,-10.137 3.007,-3.236 4.934,-1.674 9.57,7.755 1.641,3.338 2.323,4.366 2.823,4.259 0.364,-0.077 1.452,-0.259 2.418,-0.404 2.206,-0.33 2.233,-0.162 -1.155,-7.188 -2.627,-5.447 -2.886,-6.192 -2.796,-8.02 0.065,-1.32 2.089,-3.192 3.451,-3.192 2.287,0 5.255,4.494 7.739,11.718 0.939,2.729 0.881,2.702 3.601,1.686 2.084,-0.778 2.109,-0.501 -0.68,-7.411 -3.74,-9.263 -7.008,-12.224 -11.814,-10.7 m 94.727,7.343 c -1.74,3.599 -3.374,7.223 -3.632,8.054 -1.622,5.226 2.534,9.951 8.313,9.453 l 2.637,-0.227 v 1.158 c 0,1.034 3.183,3.723 3.661,3.094 0.061,-0.08 1.481,-3.045 3.156,-6.59 1.675,-3.545 3.639,-7.665 4.364,-9.156 0.725,-1.492 1.319,-2.749 1.319,-2.795 0,-0.203 -4.272,-2.893 -4.594,-2.893 -0.198,0 -0.57,0.699 -0.826,1.552 -2.62,8.746 -7.513,13.356 -11.427,10.766 -3.012,-1.993 -2.667,-3.235 4.1,-14.741 l 1.08,-1.836 L 251.6,75.8 c -1.298,-0.655 -2.42,-1.191 -2.495,-1.191 -0.074,0 -1.558,2.945 -3.298,6.543 m 30.152,3.401 c -2.649,2.649 0.501,7.155 3.808,5.445 2.003,-1.036 2.5,-3.549 1.064,-5.375 -1.109,-1.41 -3.498,-1.445 -4.872,-0.07 m -4.171,5.584 c -0.329,0.376 -1.78,2.617 -3.224,4.98 -1.444,2.363 -3.548,5.528 -4.675,7.031 -2.783,3.712 -2.784,3.72 -0.818,5.65 l 1.681,1.649 2.137,-2.673 c 4.4,-5.504 9.683,-13.838 9.266,-14.617 -1.055,-1.972 -3.442,-3.076 -4.367,-2.02 m -154.08,3.573 c -8.421,2.169 -11.34,13.529 -4.927,19.174 7.552,6.648 18.872,1.426 18.856,-8.699 -0.011,-7.022 -6.982,-12.264 -13.929,-10.475 m 168.296,1.971 -1.747,1.932 -1.768,-1.217 -1.768,-1.216 -1.13,1.336 c -1.96,2.317 -1.987,2.513 -0.482,3.538 0.745,0.507 1.356,1.077 1.357,1.265 0.004,0.518 -5.483,6.873 -6.731,7.796 -2.023,1.496 -2.294,4.646 -0.602,7.021 1.922,2.7 7.716,4.732 7.732,2.712 0.003,-0.376 0.111,-1.079 0.241,-1.563 0.201,-0.75 0.083,-0.879 -0.805,-0.879 -1.209,0 -2.957,-1.573 -2.957,-2.663 0,-0.972 1.701,-3.084 4.948,-6.145 l 2.617,-2.467 2.252,1.713 2.253,1.713 1.466,-1.997 1.466,-1.997 -0.952,-0.621 c -0.524,-0.342 -1.434,-1.061 -2.023,-1.598 l -1.07,-0.977 1.772,-2.312 1.772,-2.312 -1.684,-1.48 c -2.134,-1.875 -2.079,-1.88 -4.157,0.418 M 123.32,99.473 c 3.869,1.896 4.463,8.244 0.986,10.523 -4.799,3.144 -11.348,-1.318 -9.889,-6.738 1.152,-4.277 4.766,-5.813 8.903,-3.785 m 70.646,6.436 c -13.152,3.081 -20.184,18.635 -14.172,31.345 l 1.287,2.719 -5.287,2.734 c -13.37,6.913 -24.413,16.535 -22.684,19.765 1.177,2.199 2.658,1.733 6.356,-1.999 6.711,-6.774 17.136,-13.591 21.995,-14.382 1.232,-0.2 2.563,-0.656 2.957,-1.012 0.673,-0.61 0.802,-0.573 2.174,0.632 5.503,4.832 14.924,5.681 22.149,1.996 5.938,-3.028 8.29,-2.817 17.217,1.544 5.301,2.59 9.824,5.791 14.783,10.462 2.976,2.804 3.919,3.404 5.06,3.224 0.485,-0.077 0.34,0.492 -0.653,2.548 -5.402,11.199 -2.748,22.61 6.637,28.54 2.184,1.379 2.18,1.395 -0.515,2.235 -6.166,1.921 -11.282,5.101 -15.451,9.604 -4.315,4.66 -4.931,5.798 -8.276,15.282 -1.937,5.49 -4.927,7.873 -13.196,10.517 -10.119,3.234 -12.551,6.452 -10.372,13.725 3.648,12.177 31.266,6.779 41.392,-8.091 0.507,-0.745 1.01,-1.356 1.117,-1.357 0.372,-0.006 0.009,19.338 -0.388,20.757 -0.644,2.294 -6.448,6.656 -13.755,10.336 -22.309,11.235 -55.193,8.91 -73.951,-5.228 -5.26,-3.965 -5.622,-5.104 -5.644,-17.795 l -0.012,-6.966 3.011,2.774 c 15.617,14.391 36.394,16.853 40.975,4.857 2.465,-6.455 -0.871,-11.002 -9.806,-13.367 -11.116,-2.942 -15.779,-6.901 -20.486,-17.392 -3.116,-6.946 -9.071,-12.504 -17.502,-16.335 l -2.637,-1.198 1.563,-1.211 c 13.075,-10.129 12.248,-27.874 -1.694,-36.344 -24.252,-14.732 -46.898,21.806 -23.085,37.248 l 2.175,1.41 -1.894,1.526 c -6.687,5.387 -8.51,13.803 -8.51,39.277 0,16.521 0,16.523 2.539,15.451 2.417,-1.021 2.336,-0.439 2.419,-17.57 0.145,-30.033 2.722,-35.994 15.55,-35.963 13.118,0.031 23.609,6.758 27.876,17.874 3.314,8.633 10.336,14.572 19.975,16.897 9.645,2.327 11.55,4.1 8.726,8.118 -7.145,10.167 -31.838,0.412 -41.001,-16.197 -1.813,-3.286 -5.297,-7.943 -6.202,-8.29 -2.073,-0.796 -1.751,5.246 0.478,8.975 2.528,4.229 2.585,4.589 2.663,16.947 0.078,12.142 0.17,12.727 2.555,16.211 7.614,11.119 37.749,20.613 57.781,18.204 13.764,-1.655 27.198,-6.676 36.687,-13.712 6.462,-4.791 6.878,-6.121 6.534,-20.898 -0.29,-12.425 -0.081,-14.503 1.919,-19.049 2.07,-4.709 1.816,-6.063 -1.195,-6.362 -1.211,-0.12 -1.567,0.345 -4.467,5.829 -2.639,4.989 -4.025,7.082 -7.251,10.945 -9.422,11.283 -31.836,16.111 -31.836,6.857 0,-3.78 1.149,-4.797 7.226,-6.399 9.592,-2.528 14.506,-7.617 18.975,-19.648 6.178,-16.632 32.256,-23.108 41.13,-10.214 3.803,5.526 4.162,8.132 4.14,30.027 -0.02,18.759 -0.126,17.975 2.432,17.975 2.555,0 2.518,0.228 2.817,-17.424 0.424,-25.043 -1.359,-32.127 -9.593,-38.116 l -2.69,-1.957 2.669,-1.874 c 7.854,-5.516 11.281,-13.78 9.224,-22.245 -4.092,-16.841 -20.826,-22.463 -35.968,-12.084 l -1.629,1.117 -0.826,-1.335 c -3.074,-4.974 -18.273,-15.801 -25.603,-18.238 -0.859,-0.286 -1.944,-0.755 -2.412,-1.044 l -0.849,-0.524 0.93,-1.37 c 10.647,-15.689 -5.644,-37.736 -24.601,-33.294 m 100.795,3.555 c -0.319,0.488 -2.422,4.398 -4.673,8.689 -5.944,11.33 -5.245,10.723 -11.223,9.741 -1.21,-0.199 -1.525,-0.083 -2.246,0.834 -1.652,2.1 -1.145,2.827 2.817,4.044 3.544,1.088 3.749,1.073 10.994,-0.767 3.437,-0.873 9.189,-2.333 12.782,-3.243 7.704,-1.954 7.285,-1.674 5.945,-3.961 -1.434,-2.447 -1.211,-2.431 -8.449,-0.577 -10.457,2.678 -10.271,2.663 -8.796,0.704 2.542,-3.374 7.483,-12.577 7.179,-13.37 -0.116,-0.301 -1.006,-1.094 -1.98,-1.764 l -1.769,-1.218 -0.581,0.888 m -89.996,2.281 c 12.54,4.224 15.596,19.701 5.772,29.235 -8.944,8.68 -26.125,2.302 -27.721,-10.289 -1.636,-12.9 10.023,-22.964 21.949,-18.946 M 99.751,112.47 c -9.487,4.308 -8.819,16.987 1.052,19.985 9.532,2.896 17.115,-3.85 14.776,-13.141 -0.542,-2.153 -0.693,-2.152 -2.607,0.022 -0.851,0.967 -1.742,1.758 -1.98,1.758 -0.294,0 -0.357,0.724 -0.197,2.262 0.632,6.041 -8.974,7.289 -11.711,1.522 -2.054,-4.329 0.154,-8.142 4.822,-8.328 0.967,-0.039 1.879,-0.087 2.026,-0.107 0.455,-0.062 3.045,-2.94 3.049,-3.387 0.01,-1.183 -6.943,-1.625 -9.23,-0.586 m -13.974,18.517 c -2.453,2.994 -3.08,5.339 -1.986,7.437 0.759,1.454 0.792,1.404 -0.745,1.155 -1.101,-0.179 -1.428,-0.058 -1.912,0.708 -1.269,2.009 -1.179,2.454 0.608,3.002 3.072,0.944 10.614,4.058 14.448,5.967 l 3.807,1.895 1.021,-2.014 c 1.252,-2.47 1.608,-2.124 -5.95,-5.787 -7.984,-3.869 -9.343,-6.597 -5.087,-10.216 l 1.23,-1.047 -1.563,-1.379 c -1.999,-1.765 -2.209,-1.75 -3.871,0.279 m 209.604,7.417 c -1.73,1.841 -0.796,4.953 1.672,5.572 1.303,0.327 3.491,-0.951 3.663,-2.141 0.501,-3.461 -3.12,-5.789 -5.335,-3.431 m 15.328,3.927 c -3.026,1.371 -3.154,2.028 -2.269,11.636 0.221,2.397 0.174,2.635 -0.611,3.055 -2.402,1.286 -4.732,-3.361 -3.455,-6.892 0.911,-2.52 -1.248,-5.256 -2.939,-3.726 -4.242,3.839 -1.41,13.744 4.376,15.302 5.926,1.595 9.183,-3.172 7.253,-10.618 -0.796,-3.072 -0.644,-4.369 0.533,-4.536 2.357,-0.334 4.32,3.461 3.848,7.442 -0.543,4.583 2.071,6.749 4.022,3.332 4.504,-7.886 -3.089,-18.471 -10.758,-14.995 m -234.181,7.141 c -0.239,0.613 -0.666,1.753 -0.949,2.534 l -0.513,1.42 1.562,0.25 c 0.859,0.137 2.821,0.765 4.361,1.395 1.54,0.629 4.065,1.508 5.612,1.953 3.536,1.018 4.415,1.991 4.415,4.89 0,4.657 -1.28,4.908 -10.938,2.149 -8.268,-2.363 -8.074,-2.352 -8.537,-0.489 -0.826,3.32 -0.835,3.211 0.272,3.456 0.571,0.126 3.412,0.856 6.312,1.621 10.999,2.903 12.772,3.012 14.868,0.916 1.969,-1.969 2.903,-6.915 1.731,-9.162 -0.749,-1.436 -0.737,-1.522 0.176,-1.232 0.839,0.266 1.736,-0.797 2.173,-2.577 0.299,-1.22 1.299,-0.754 -9.964,-4.647 -4.834,-1.671 -9.094,-3.163 -9.467,-3.315 -0.51,-0.208 -0.786,-10e-4 -1.114,0.838 m 65.084,12.152 c 12.819,6.547 13.114,25.642 0.487,31.505 -0.297,0.137 -0.34,0.312 -0.107,0.432 2.003,1.034 1.798,1.408 -0.536,0.98 -0.939,-0.172 -3.018,-0.15 -4.62,0.049 -13.091,1.625 -23.038,-12.272 -17.284,-24.147 3.832,-7.907 15.059,-12.395 22.06,-8.819 m 126.611,-0.532 c 18.446,4.911 15.23,32.463 -3.79,32.463 -12.326,0 -20.126,-12.574 -14.952,-24.103 2.914,-6.493 11.452,-10.301 18.742,-8.36 m -77.073,1.199 c -8.411,2.174 -21.619,10.298 -21.619,13.297 0,3.175 2.588,3.116 6.074,-0.14 7.133,-6.661 14.251,-9.441 24.136,-9.426 9.449,0.014 18.912,3.572 24.545,9.226 3.424,3.437 6.183,3.567 6.183,0.29 0,-1.175 -6.813,-7.363 -10.179,-9.244 -8.205,-4.588 -20.399,-6.263 -29.14,-4.003 m 130.139,-0.146 c -4.019,1.279 -14.586,3.777 -20.605,4.87 l -5.762,1.048 v 1.177 c 0,1.98 0.839,4.259 1.478,4.014 0.31,-0.119 2.49,-0.652 4.845,-1.183 2.354,-0.532 4.471,-1.084 4.704,-1.228 0.29,-0.179 0.326,0.036 0.115,0.678 -3.547,10.769 9.069,16.308 20.26,8.895 4.079,-2.702 3.863,-9.518 -0.397,-12.549 -1.357,-0.966 -1.376,-1.012 -0.578,-1.438 1.004,-0.538 1.061,-1.84 0.165,-3.72 -0.746,-1.564 -0.982,-1.596 -4.225,-0.564 m -0.199,6.548 c 1.568,0.841 3.135,3.503 3.116,5.294 -0.047,4.64 -10.414,6.417 -13.625,2.335 -1.421,-1.807 -0.253,-6.122 1.901,-7.02 3.163,-1.319 6.803,-1.576 8.608,-0.609 m -246.802,5.929 c -4.327,2.188 -6.128,5.627 -5.874,11.218 0.555,12.192 19.796,13.969 23.234,2.145 2.712,-9.329 -8.409,-17.889 -17.36,-13.363 m 9.677,5.004 c 4.345,2.241 4.146,7.844 -0.36,10.12 -5.801,2.931 -12.302,-2.293 -9.824,-7.895 1.426,-3.223 6.219,-4.27 10.184,-2.225 m 230.358,7.629 c -6.093,1.715 -8.02,8.724 -3.953,14.385 1.312,1.826 1.324,1.876 0.45,1.876 -1.276,0 -1.84,0.725 -1.808,2.324 0.04,2.01 0.427,2.808 1.144,2.355 0.323,-0.204 3.574,-0.374 7.227,-0.379 9.365,-0.011 11.795,-1.056 13.073,-5.623 2.614,-9.337 -6.395,-17.679 -16.133,-14.938 m 12.33493,8.75095 c 3.05693,10.6666 -9.05546,7.2479 -7.21969,7.77696 -10.02001,1.1835 -10.72753,-19.83484 4.27575,-11.38688 M 68.481,200.845 c 0.129,1.539 0.433,2.921 0.677,3.072 0.619,0.382 12.567,3.056 15.412,3.449 l 2.344,0.324 -3.51,1.663 c -1.93,0.914 -4.743,2.407 -6.25,3.317 -1.507,0.909 -3.72,2.098 -4.917,2.642 l -2.178,0.988 0.396,2.397 c 0.493,2.978 -0.888,3.357 11.9,-3.267 13.199,-6.837 12.104,-6.7 14.715,-1.839 0.825,1.535 1.5,2.288 2.281,2.542 3.995,1.301 2.333,-8.624 -1.777,-10.607 -1.748,-0.844 -2.14,-0.936 -11.051,-2.6 -5.374,-1.004 -11.709,-2.697 -12.522,-3.347 -0.402,-0.322 -4.66,-1.532 -5.39,-1.532 -0.214,0 -0.268,1.156 -0.13,2.798 m 243.673,11.826 c -8.271,2.7 -8.37,16.132 -0.137,18.745 1.33,0.422 1.182,-2.08 -0.298,-5.049 -2.757,-5.527 -0.997,-8.789 4.744,-8.789 8.697,0 10.316,8.216 2.359,11.972 -0.359,0.17 0.816,3.263 1.239,3.263 8.16,0 12.108,-11.656 5.822,-17.189 -3.078,-2.709 -9.949,-4.187 -13.729,-2.953 M 79.041,228.749 c -1.365,2.083 1.555,11.46 7.329,23.539 11.486,24.023 31.46,43.809 60.114,59.545 17.908,9.834 52.724,14.729 75.391,10.599 29.098,-5.301 54.675,-20.643 76.333,-45.785 9.03,-10.483 9.219,-10.821 7.013,-12.556 -1.939,-1.525 -2.867,-0.861 -7.598,5.44 -42.484,56.586 -119.357,65.875 -174.866,21.131 -15.409,-12.421 -29.79,-32.203 -36.465,-50.161 -1.18,-3.174 -1.439,-4.419 -0.705,-3.392 0.507,0.71 0.485,0.607 -1.023,-4.942 -1.264,-4.651 -3.72,-6.17 -5.523,-3.418 m 225.4,8.309 c -3.525,1.645 -6.53,8.526 -5.224,11.961 0.444,1.168 2.714,4.106 3.172,4.106 1.229,0 2.375,-2.761 1.72,-4.142 -1.483,-3.123 0.189,-6.516 3.448,-6.999 3.635,-0.539 3.646,-0.353 0.409,6.601 -3.422,7.35 -3.321,6.604 -1.032,7.575 10.627,4.512 19.214,-8.164 10.791,-15.929 -3.759,-3.464 -9.647,-4.871 -13.284,-3.173 m 11.515,9.15 c 1.471,2.858 -0.66,6.917 -3.632,6.917 -1.816,0 -1.837,-0.161 -0.433,-3.252 0.7,-1.542 1.492,-3.471 1.759,-4.288 0.602,-1.838 1.11,-1.701 2.306,0.623"
   stroke-linecap="round"
   id="path1"
   sodipodi:nodetypes="cccccccsccscsccccccccccccccccccccccccccccccccccsscccsccccccccccccccccssccccccccscscsscccccsccccccscccccccccccccccccccscsscccccccccccccccccccccccccccccccccccccccccccccscccccccccsccccccccccccccccccsccccsccccccccccccccccccccccccccccsccccscsccccccccccccccccccccccccccccccccccccccccsccccsscccccccccccccscccscccscccccsccccscccccccccccccccccccscscccccccccccccccccccccsccccscscccccccsccccscccscccccccsccc" />
</g>
</svg>
